# xmcd
#
# Track frame offsets: 
#        150
#        18255
#        35688
#        50505
#        67635
#        81046
#        93319
#        107354
#        123442
#        138945
#
# Disc length: 2035 seconds
#
# Revision: 0
# Processed by: cddbd v1.5.2PL0 Copyright (c) Steve Scherf et al.
# Submitted via: ExactAudioCopy v0.99pb4
#
DISCID=7207f10a
DTITLE=Kenny Rogers - Best of Kenny Rogers
DYEAR=2007
DGENRE=
TTITLE0=Don't Fall in Love With A Dreamer
TTITLE1=Three Times A Lady
TTITLE2=Crazy
TTITLE3=Endless Love
TTITLE4=I Will Always Love You
TTITLE5=Somewhere My Love
TTITLE6=You Are So Beautiful
TTITLE7=Wind Beneath My Wings
TTITLE8=When I Fall In Love
TTITLE9=You Send Me
EXTD=
EXTT0=
EXTT1=
EXTT2=
EXTT3=
EXTT4=
EXTT5=
EXTT6=
EXTT7=
EXTT8=
EXTT9=
PLAYORDER=
